<svg id="Layer_1" data-name="Layer 1" xmlns="http://www.w3.org/2000/svg" viewBox="0 0 25 13.54"><defs><style>.cls-1{fill:#77797a;}</style></defs><title>add-companion</title><path class="cls-1" d="M8.33,9.67H5.21V6.54H3.13V9.67H0v2.08H3.13v3.12H5.21V11.75H8.33Zm10.42,1a3.13,3.13,0,0,0,0-6.25,3.26,3.26,0,0,0-.95.14,5.19,5.19,0,0,1,0,6A3,3,0,0,0,18.75,10.71Zm-5.21,0a3.13,3.13,0,1,0-3.12-3.13A3.12,3.12,0,0,0,13.54,10.71ZM20.44,13a3.86,3.86,0,0,1,1.43,3V18H25V15.92C25,14.31,22.53,13.32,20.44,13Zm-6.9-.17c-2.08,0-6.25,1-6.25,3.13V18h12.5V15.92C19.79,13.83,15.63,12.79,13.54,12.79Z" transform="translate(0 -4.46)"/></svg>
