<svg id="Layer_1" data-name="Layer 1" xmlns="http://www.w3.org/2000/svg" viewBox="0 0 16.8 16.8"><title>driver</title><path d="M12.43,3a8.4,8.4,0,1,0,8.41,8.4A8.41,8.41,0,0,0,12.43,3Zm0,1.74a6.66,6.66,0,0,1,5.46,2.85l-3.71,2.3a2.28,2.28,0,0,0-3.33-.17L7.12,7.4A6.64,6.64,0,0,1,12.43,4.74ZM5.77,11.4a6.42,6.42,0,0,1,.49-2.48l3.86,2.4v.08a2.3,2.3,0,0,0,1.4,2.13V18A6.67,6.67,0,0,1,5.77,11.4ZM13.35,18V13.53a2.29,2.29,0,0,0,1.38-1.93l4-2.46a6.56,6.56,0,0,1,.41,2.26A6.67,6.67,0,0,1,13.35,18Z" transform="translate(-4.03 -3)"/></svg>